# xmcd
#
# Track frame offsets: 
#        150
#        14745
#        28802
#        54782
#        82030
#        99107
#        115242
#        139747
#        158040
#
# Disc length: 2311 seconds
#
# Revision: 3
# Processed by: cddbd v1.5.2PL0 Copyright (c) Steve Scherf et al.
# Submitted via: ExactAudioCopy v0.95b4
#
DISCID=6a090509
DTITLE=Ike Quebec - Bossa Nova Soul Samba
DYEAR=1962
DGENRE=Jazz
TTITLE0=Loie
TTITLE1=Lloro Tu Despedida
TTITLE2=Goin' Home
TTITLE3=Me 'N You
TTITLE4=Liebestraum
TTITLE5=Shu Shu
TTITLE6=Blue Samba
TTITLE7=Favela
TTITLE8=Linda Flor
EXTD=YEAR: 1962
EXTT0=
EXTT1=
EXTT2=
EXTT3=
EXTT4=
EXTT5=
EXTT6=
EXTT7=
EXTT8=
PLAYORDER=
